<svg xmlns="http://www.w3.org/2000/svg" width="1600" height="900" viewBox="0 0 1600 900" role="img" aria-labelledby="title desc">
  <title id="title">ModelPort quick start</title>
  <desc id="desc">Four readable quick-start steps for configuring ModelPort, validating configuration, starting the gateway, and connecting VS Code Claude to Mimo v2.5 Pro.</desc>

  <defs>
    <style>
      .bg { fill: #f6f8fb; }
      .header { fill: #ffffff; }
      .card { fill: #ffffff; stroke: #d7e0e8; stroke-width: 2; }
      .card-hot { fill: #ffffff; stroke: #0f766e; stroke-width: 3; }
      .title { fill: #10202b; font: 700 54px Inter, ui-sans-serif, system-ui, -apple-system, BlinkMacSystemFont, "Segoe UI", sans-serif; }
      .subtitle { fill: #536473; font: 400 24px Inter, ui-sans-serif, system-ui, -apple-system, BlinkMacSystemFont, "Segoe UI", sans-serif; }
      .step-num { fill: #ffffff; font: 800 24px Inter, ui-sans-serif, system-ui, -apple-system, BlinkMacSystemFont, "Segoe UI", sans-serif; }
      .h2 { fill: #10202b; font: 700 30px Inter, ui-sans-serif, system-ui, -apple-system, BlinkMacSystemFont, "Segoe UI", sans-serif; }
      .body { fill: #536473; font: 400 20px Inter, ui-sans-serif, system-ui, -apple-system, BlinkMacSystemFont, "Segoe UI", sans-serif; }
      .code { fill: #dffaf5; font: 600 21px ui-monospace, SFMono-Regular, Menlo, Consolas, "Liberation Mono", monospace; }
      .code-dim { fill: #adc8c3; font: 600 19px ui-monospace, SFMono-Regular, Menlo, Consolas, "Liberation Mono", monospace; }
      .code-bg { fill: #10202b; }
      .chip { fill: #e7f5f3; stroke: #b8ddd7; stroke-width: 1.4; }
      .chip-hot { fill: #fff0dd; stroke: #ffc46b; stroke-width: 1.4; }
      .chip-text { fill: #144f49; font: 700 17px Inter, ui-sans-serif, system-ui, -apple-system, BlinkMacSystemFont, "Segoe UI", sans-serif; }
      .chip-hot-text { fill: #8a4b00; font: 700 17px Inter, ui-sans-serif, system-ui, -apple-system, BlinkMacSystemFont, "Segoe UI", sans-serif; }
      .band { fill: #10202b; }
      .band-title { fill: #ffffff; font: 700 24px Inter, ui-sans-serif, system-ui, -apple-system, BlinkMacSystemFont, "Segoe UI", sans-serif; }
      .band-text { fill: #d4dde5; font: 500 18px Inter, ui-sans-serif, system-ui, -apple-system, BlinkMacSystemFont, "Segoe UI", sans-serif; }
    </style>
  </defs>

  <rect class="bg" width="1600" height="900"/>
  <rect class="header" x="0" y="0" width="1600" height="132"/>
  <line x1="0" y1="132" x2="1600" y2="132" stroke="#d7e0e8" stroke-width="2"/>

  <text class="title" x="80" y="82">Quick Start</text>
  <text class="subtitle" x="80" y="116">Configure once, validate locally, then let VS Code Claude use Mimo through ModelPort</text>
  <rect class="chip-hot" x="1260" y="48" width="260" height="44" rx="8"/>
  <text class="chip-hot-text" x="1292" y="77">mimo-v2.5-pro</text>

  <rect class="card" x="80" y="188" width="680" height="232" rx="8"/>
  <circle cx="128" cy="236" r="25" fill="#0f766e"/>
  <text class="step-num" x="121" y="245">1</text>
  <text class="h2" x="176" y="246">Prepare env</text>
  <text class="body" x="176" y="286">Copy the template and set tokens.</text>
  <rect class="code-bg" x="112" y="318" width="616" height="72" rx="8"/>
  <text class="code" x="138" y="348">cp .env.example .env</text>
  <text class="code-dim" x="138" y="376">BASE_URL=https://w.ciykj.cn/v1</text>

  <rect class="card" x="840" y="188" width="680" height="232" rx="8"/>
  <circle cx="888" cy="236" r="25" fill="#0f766e"/>
  <text class="step-num" x="880" y="245">2</text>
  <text class="h2" x="936" y="246">Validate config</text>
  <text class="body" x="936" y="286">Catch missing keys before startup.</text>
  <rect class="code-bg" x="872" y="318" width="616" height="72" rx="8"/>
  <text class="code" x="898" y="348">scripts/config-validate.sh</text>
  <text class="code-dim" x="898" y="376">checks .env before startup</text>

  <rect class="card-hot" x="80" y="476" width="680" height="232" rx="8"/>
  <circle cx="128" cy="524" r="25" fill="#0f766e"/>
  <text class="step-num" x="120" y="533">3</text>
  <text class="h2" x="176" y="534">Start gateway</text>
  <text class="body" x="176" y="574">Run ModelPort on the local Anthropic-compatible port.</text>
  <rect class="code-bg" x="112" y="606" width="616" height="72" rx="8"/>
  <text class="code" x="138" y="636">scripts/start.sh</text>
  <text class="code-dim" x="138" y="664">http://127.0.0.1:17878</text>

  <rect class="card" x="840" y="476" width="680" height="232" rx="8"/>
  <circle cx="888" cy="524" r="25" fill="#0f766e"/>
  <text class="step-num" x="880" y="533">4</text>
  <text class="h2" x="936" y="534">Connect Claude</text>
  <text class="body" x="936" y="574">VS Code Claude points to ModelPort and selects Mimo.</text>
  <rect class="code-bg" x="872" y="606" width="616" height="72" rx="8"/>
  <text class="code" x="898" y="636">ANTHROPIC_MODEL=mimo-v2.5-pro</text>
  <text class="code-dim" x="898" y="664">ANTHROPIC_BASE_URL=http://127.0.0.1:17878</text>

  <rect class="band" x="80" y="756" width="1440" height="88" rx="8"/>
  <text class="band-title" x="114" y="792">Expected result</text>
  <text class="band-text" x="114" y="822">Health, auth, upstream, and stream checks pass.</text>

  <rect x="872" y="779" width="118" height="42" rx="8" fill="#ffffff" opacity="0.95"/>
  <text class="chip-text" x="896" y="806">health ok</text>
  <rect x="1008" y="779" width="104" height="42" rx="8" fill="#ffffff" opacity="0.95"/>
  <text class="chip-text" x="1032" y="806">auth ok</text>
  <rect x="1130" y="779" width="220" height="42" rx="8" fill="#ffffff" opacity="0.95"/>
  <text class="chip-text" x="1156" y="806">Mimo upstream ok</text>
  <rect x="1370" y="779" width="116" height="42" rx="8" fill="#ffffff" opacity="0.95"/>
  <text class="chip-text" x="1388" y="806">stream ok</text>
</svg>
